<svg aria-roledescription="er" role="graphics-document document" viewBox="0 0 1146.65625 465" style="max-width: 1146.65625px;" xmlns="http://www.w3.org/2000/svg" width="100%" id="export-svg"><style xmlns="http://www.w3.org/1999/xhtml">@import url("https://cdnjs.cloudflare.com/ajax/libs/font-awesome/6.2.0/css/all.min.css"); p {margin: 0;}</style><style>#export-svg{font-family:arial,sans-serif;font-size:14px;fill:#333;}@keyframes edge-animation-frame{from{stroke-dashoffset:0;}}@keyframes dash{to{stroke-dashoffset:0;}}#export-svg .edge-animation-slow{stroke-dasharray:9,5!important;stroke-dashoffset:900;animation:dash 50s linear infinite;stroke-linecap:round;}#export-svg .edge-animation-fast{stroke-dasharray:9,5!important;stroke-dashoffset:900;animation:dash 20s linear infinite;stroke-linecap:round;}#export-svg .error-icon{fill:#ffffff;}#export-svg .error-text{fill:#000000;stroke:#000000;}#export-svg .edge-thickness-normal{stroke-width:2px;}#export-svg .edge-thickness-thick{stroke-width:3.5px;}#export-svg .edge-pattern-solid{stroke-dasharray:0;}#export-svg .edge-thickness-invisible{stroke-width:0;fill:none;}#export-svg .edge-pattern-dashed{stroke-dasharray:3;}#export-svg .edge-pattern-dotted{stroke-dasharray:2;}#export-svg .marker{fill:#000000;stroke:#000000;}#export-svg .marker.cross{stroke:#000000;}#export-svg svg{font-family:arial,sans-serif;font-size:14px;}#export-svg p{margin:0;}#export-svg .entityBox{fill:#ffffff;stroke:#000000;}#export-svg .attributeBoxOdd{fill:#ffffff;stroke:#000000;}#export-svg .attributeBoxEven{fill:#f2f2f2;stroke:#000000;}#export-svg .relationshipLabelBox{fill:#ffffff;opacity:0.7;background-color:#ffffff;}#export-svg .relationshipLabelBox rect{opacity:0.5;}#export-svg .relationshipLine{stroke:#000000;}#export-svg .entityTitleText{text-anchor:middle;font-size:18px;fill:#333;}#export-svg #MD_PARENT_START{fill:#f5f5f5!important;stroke:#000000!important;stroke-width:1;}#export-svg #MD_PARENT_END{fill:#f5f5f5!important;stroke:#000000!important;stroke-width:1;}#export-svg .node .neo-node{stroke:#000000;}#export-svg [data-look="neo"].node rect,#export-svg [data-look="neo"].cluster rect,#export-svg [data-look="neo"].node polygon{stroke:url(#export-svg-gradient);filter:drop-shadow( 0px 1px 2px rgba(0, 0, 0, 0.25));}#export-svg [data-look="neo"].node path{stroke:url(#export-svg-gradient);}#export-svg [data-look="neo"].node .outer-path{filter:drop-shadow( 0px 1px 2px rgba(0, 0, 0, 0.25));}#export-svg [data-look="neo"].node .neo-line path{stroke:hsl(0, 0%, 70%);filter:none;}#export-svg [data-look="neo"].node circle{stroke:url(#export-svg-gradient);filter:drop-shadow( 0px 1px 2px rgba(0, 0, 0, 0.25));}#export-svg [data-look="neo"].node circle .state-start{fill:#000000;}#export-svg [data-look="neo"].statediagram-cluster rect{fill:#ffffff;stroke:url(#export-svg-gradient);stroke-width:1px;}#export-svg [data-look="neo"].icon-shape .icon{fill:url(#export-svg-gradient);filter:drop-shadow( 0px 1px 2px rgba(0, 0, 0, 0.25));}#export-svg [data-look="neo"].icon-shape .icon-neo path{stroke:url(#export-svg-gradient);filter:drop-shadow( 0px 1px 2px rgba(0, 0, 0, 0.25));}#export-svg :root{--mermaid-font-family:"trebuchet ms",verdana,arial,sans-serif;}</style><g/><defs><marker orient="auto" markerHeight="240" markerWidth="190" refY="7" refX="0" id="MD_PARENT_START"><path d="M 18,7 L9,13 L1,7 L9,1 Z"/></marker></defs><defs><marker orient="auto" markerHeight="28" markerWidth="20" refY="7" refX="19" id="MD_PARENT_END"><path d="M 18,7 L9,13 L1,7 L9,1 Z"/></marker></defs><defs><marker orient="auto" markerHeight="18" markerWidth="18" refY="9" refX="0" id="ONLY_ONE_START"><path d="M9,0 L9,18 M15,0 L15,18" fill="none" stroke="gray"/></marker></defs><defs><marker orient="auto" markerHeight="18" markerWidth="18" refY="9" refX="18" id="ONLY_ONE_END"><path d="M3,0 L3,18 M9,0 L9,18" fill="none" stroke="gray"/></marker></defs><defs><marker orient="auto" markerHeight="18" markerWidth="30" refY="9" refX="0" id="ZERO_OR_ONE_START"><circle r="6" cy="9" cx="21" fill="white" stroke="gray"/><path d="M9,0 L9,18" fill="none" stroke="gray"/></marker></defs><defs><marker orient="auto" markerHeight="18" markerWidth="30" refY="9" refX="30" id="ZERO_OR_ONE_END"><circle r="6" cy="9" cx="9" fill="white" stroke="gray"/><path d="M21,0 L21,18" fill="none" stroke="gray"/></marker></defs><defs><marker orient="auto" markerHeight="36" markerWidth="45" refY="18" refX="18" id="ONE_OR_MORE_START"><path d="M0,18 Q 18,0 36,18 Q 18,36 0,18 M42,9 L42,27" fill="none" stroke="gray"/></marker></defs><defs><marker orient="auto" markerHeight="36" markerWidth="45" refY="18" refX="27" id="ONE_OR_MORE_END"><path d="M3,9 L3,27 M9,18 Q27,0 45,18 Q27,36 9,18" fill="none" stroke="gray"/></marker></defs><defs><marker orient="auto" markerHeight="36" markerWidth="57" refY="18" refX="18" id="ZERO_OR_MORE_START"><circle r="6" cy="18" cx="48" fill="white" stroke="gray"/><path d="M0,18 Q18,0 36,18 Q18,36 0,18" fill="none" stroke="gray"/></marker></defs><defs><marker orient="auto" markerHeight="36" markerWidth="57" refY="18" refX="39" id="ZERO_OR_MORE_END"><circle r="6" cy="18" cx="9" fill="white" stroke="gray"/><path d="M21,18 Q39,0 57,18 Q39,36 21,18" fill="none" stroke="gray"/></marker></defs><path marker-start="url(#ONE_OR_MORE_START)" marker-end="url(#ONE_OR_MORE_END)" stroke-dasharray="8,8" style="stroke: gray; fill: none;" d="M718.472,75.272L685.777,86.893C653.081,98.515,587.691,121.757,554.995,141.712C522.3,161.667,522.3,178.333,522.3,186.667L522.3,195" class="er relationshipLine"/><path marker-start="url(#ONE_OR_MORE_START)" marker-end="url(#ONE_OR_MORE_END)" stroke-dasharray="8,8" style="stroke: gray; fill: none;" d="M472.3,242.257L405.9,255.214C339.5,268.171,206.7,294.086,140.3,315.376C73.9,336.667,73.9,353.333,73.9,361.667L73.9,370" class="er relationshipLine"/><path marker-start="url(#ONE_OR_MORE_START)" marker-end="url(#ONE_OR_MORE_END)" stroke-dasharray="8,8" style="stroke: gray; fill: none;" d="M818.472,72.272L859.501,84.393C900.529,96.515,982.586,120.757,1023.615,141.212C1064.644,161.667,1064.644,178.333,1064.644,186.667L1064.644,195" class="er relationshipLine"/><path marker-start="url(#ONE_OR_MORE_START)" marker-end="url(#ONE_OR_MORE_END)" stroke-dasharray="8,8" style="stroke: gray; fill: none;" d="M1064.644,270L1064.644,278.333C1064.644,286.667,1064.644,303.333,1059.882,320C1055.12,336.667,1045.596,353.333,1040.834,361.667L1036.072,370" class="er relationshipLine"/><path marker-start="url(#ONE_OR_MORE_START)" marker-end="url(#ONE_OR_MORE_END)" stroke-dasharray="8,8" style="stroke: gray; fill: none;" d="M472.3,252.155L443.535,263.463C414.771,274.77,357.242,297.385,328.477,317.026C299.713,336.667,299.713,353.333,299.713,361.667L299.713,370" class="er relationshipLine"/><path marker-start="url(#ONE_OR_MORE_START)" marker-end="url(#ONE_OR_MORE_END)" stroke-dasharray="8,8" style="stroke: gray; fill: none;" d="M522.3,270L522.3,278.333C522.3,286.667,522.3,303.333,522.3,320C522.3,336.667,522.3,353.333,522.3,361.667L522.3,370" class="er relationshipLine"/><path marker-start="url(#ONE_OR_MORE_START)" marker-end="url(#ONE_OR_MORE_END)" stroke-dasharray="8,8" style="stroke: gray; fill: none;" d="M572.3,251.971L601.415,263.31C630.529,274.648,688.758,297.324,717.873,316.995C746.987,336.667,746.987,353.333,746.987,361.667L746.987,370" class="er relationshipLine"/><path marker-start="url(#ONE_OR_MORE_START)" marker-end="url(#ONE_OR_MORE_END)" stroke-dasharray="8,8" style="stroke: gray; fill: none;" d="M572.3,243.21L632.053,256.008C691.805,268.806,811.31,294.403,879.047,315.535C946.783,336.667,962.75,353.333,970.734,361.667L978.717,370" class="er relationshipLine"/><g transform="translate(718.4718723297119,20 )" id="entity-USER-6e7e2962-0c6f-577d-a7fd-2ce3a0cfd2c8"><rect height="75" width="100" y="0" x="0" class="er entityBox"/><text transform="translate(50,37.5)" style="dominant-baseline: middle; text-anchor: middle; font-size: 12px;" y="0" x="0" id="text-entity-USER-6e7e2962-0c6f-577d-a7fd-2ce3a0cfd2c8" class="er entityLabel">USER</text></g><g transform="translate(472.29999923706055,195 )" id="entity-ACTIVITIES-4fcc6c91-8077-5422-a855-8d6382c1b728"><rect height="75" width="100" y="0" x="0" class="er entityBox"/><text transform="translate(50,37.5)" style="dominant-baseline: middle; text-anchor: middle; font-size: 12px;" y="0" x="0" id="text-entity-ACTIVITIES-4fcc6c91-8077-5422-a855-8d6382c1b728" class="er entityLabel">ACTIVITIES</text></g><g transform="translate(20,370 )" id="entity-CATEGORIES-051115c8-8701-5ef2-9611-ff1fd9eaa4b7"><rect height="75" width="107.80000305175781" y="0" x="0" class="er entityBox"/><text transform="translate(53.900001525878906,37.5)" style="dominant-baseline: middle; text-anchor: middle; font-size: 12px;" y="0" x="0" id="text-entity-CATEGORIES-051115c8-8701-5ef2-9611-ff1fd9eaa4b7" class="er entityLabel">CATEGORIES</text></g><g transform="translate(1002.6312446594238,195 )" id="entity-USERACTIVITY-0707769c-71a3-5835-b8dd-bf8a24710128"><rect height="75" width="124.0250015258789" y="0" x="0" class="er entityBox"/><text transform="translate(62.01250076293945,37.5)" style="dominant-baseline: middle; text-anchor: middle; font-size: 12px;" y="0" x="0" id="text-entity-USERACTIVITY-0707769c-71a3-5835-b8dd-bf8a24710128" class="er entityLabel">USER_ACTIVITY</text></g><g transform="translate(920.9999923706055,370 )" id="entity-ACTIVITYDAYSCHEDULE-d8c00b09-48ed-5422-924b-d74acd181c0f"><rect height="75" width="187.28750610351562" y="0" x="0" class="er entityBox"/><text transform="translate(93.64375305175781,37.5)" style="dominant-baseline: middle; text-anchor: middle; font-size: 12px;" y="0" x="0" id="text-entity-ACTIVITYDAYSCHEDULE-d8c00b09-48ed-5422-924b-d74acd181c0f" class="er entityLabel">ACTIVITY_DAY_SCHEDULE</text></g><g transform="translate(227.8000030517578,370 )" id="entity-DAILYSCHEDULES-b749fcfb-3902-5385-b2f1-8e79f662e212"><rect height="75" width="143.82500457763672" y="0" x="0" class="er entityBox"/><text transform="translate(71.91250228881836,37.5)" style="dominant-baseline: middle; text-anchor: middle; font-size: 12px;" y="0" x="0" id="text-entity-DAILYSCHEDULES-b749fcfb-3902-5385-b2f1-8e79f662e212" class="er entityLabel">DAILY_SCHEDULES</text></g><g transform="translate(471.625,370 )" id="entity-TIMEUNITS-d5185f3d-b97b-57f4-b473-655f71ec1692"><rect height="75" width="101.3499984741211" y="0" x="0" class="er entityBox"/><text transform="translate(50.67499923706055,37.5)" style="dominant-baseline: middle; text-anchor: middle; font-size: 12px;" y="0" x="0" id="text-entity-TIMEUNITS-d5185f3d-b97b-57f4-b473-655f71ec1692" class="er entityLabel">TIME_UNITS</text></g><g transform="translate(672.9749984741211,370 )" id="entity-FREQUENCYUNITS-95b92443-b621-516c-b72f-8cfc71f650c5"><rect height="75" width="148.0250015258789" y="0" x="0" class="er entityBox"/><text transform="translate(74.01250076293945,37.5)" style="dominant-baseline: middle; text-anchor: middle; font-size: 12px;" y="0" x="0" id="text-entity-FREQUENCYUNITS-95b92443-b621-516c-b72f-8cfc71f650c5" class="er entityLabel">FREQUENCY_UNITS</text></g><rect height="13.600000381469727" width="26.421483993530273" y="110.91261577606201" x="591.1649293899536" class="er relationshipLabelBox"/><text style="text-anchor: middle; dominant-baseline: middle; font-size: 12px;" y="117.71261596679688" x="604.3756713867188" id="rel163" class="er relationshipLabel">does</text><rect height="13.600000381469727" width="55.90312576293945" y="278.3348264694214" x="231.55267906188965" class="er relationshipLabelBox"/><text style="text-anchor: middle; dominant-baseline: middle; font-size: 12px;" y="285.13482666015625" x="259.5042419433594" id="rel164" class="er relationshipLabel">belongs to</text><rect height="13.600000381469727" width="49.085548400878906" y="108.0349531173706" x="932.3897819519043" class="er relationshipLabelBox"/><text style="text-anchor: middle; dominant-baseline: middle; font-size: 12px;" y="114.83495330810547" x="956.9325561523438" id="rel165" class="er relationshipLabel">can track</text><rect height="13.600000381469727" width="34.15546798706055" y="315.647234916687" x="1042.0711917877197" class="er relationshipLabelBox"/><text style="text-anchor: middle; dominant-baseline: middle; font-size: 12px;" y="322.4472351074219" x="1059.14892578125" id="rel166" class="er relationshipLabel">as per</text><rect height="13.600000381469727" width="83.53242492675781" y="287.72554302215576" x="327.9668197631836" class="er relationshipLabelBox"/><text style="text-anchor: middle; dominant-baseline: middle; font-size: 12px;" y="294.5255432128906" x="369.7330322265625" id="rel167" class="er relationshipLabel">happens as per</text><rect height="13.600000381469727" width="61.5" y="313.19999980926514" x="491.54998779296875" class="er relationshipLabelBox"/><text style="text-anchor: middle; dominant-baseline: middle; font-size: 12px;" y="320" x="522.2999877929688" id="rel168" class="er relationshipLabel">with certain</text><rect height="13.600000381469727" width="20.541797637939453" y="287.548602104187" x="665.6247310638428" class="er relationshipLabelBox"/><text style="text-anchor: middle; dominant-baseline: middle; font-size: 12px;" y="294.3486022949219" x="675.8956298828125" id="rel169" class="er relationshipLabel">at a</text><rect height="13.600000381469727" width="154.48985290527344" y="282.915301322937" x="705.2031326293945" class="er relationshipLabelBox"/><text style="text-anchor: middle; dominant-baseline: middle; font-size: 12px;" y="289.7153015136719" x="782.4480590820312" id="rel170" class="er relationshipLabel">can be tracked as per day by</text></svg>